# xmcd CD database file
#
# Track frame offsets:
#	150
#	22894
#	57117
#	78950
#	92478
#	119724
#	153400
#	177952
#	191813
#	217576
#	231349
#
# Disc length: 3581 seconds
#
# Revision: 0
# Processed by: cddbd v1.5.1PL0 Copyright (c) Steve Scherf et al.
# Submitted via: CDex 1.51
#
DISCID=850dfb0b
DTITLE=John Lee Hooker - The Cream
DYEAR=2001
DGENRE=Blues
TTITLE0=Hey Hey
TTITLE1=Rock Steady
TTITLE2=Tupelo
TTITLE3=You Know It Ain't Right
TTITLE4=She's Gone
TTITLE5=T.B.Sheets
TTITLE6=Sugar Mama
TTITLE7=One Room Country Shack
TTITLE8=Drug Store Woman
TTITLE9=I Want You To Roll Me
TTITLE10=Bar Room Drinking
EXTD=YEAR: 2001
EXTT0=
EXTT1=
EXTT2=
EXTT3=
EXTT4=
EXTT5=
EXTT6=
EXTT7=
EXTT8=
EXTT9=
EXTT10=
PLAYORDER=
